<svg width="20" height="21" viewBox="0 0 20 21" fill="none" xmlns="http://www.w3.org/2000/svg">
<path d="M10 6.25006V4.75006M10 6.25006C8.64485 6.25006 7.30281 6.30622 5.97608 6.41633C4.84499 6.51021 4 7.47329 4 8.60828V11.1214M10 6.25006C11.3552 6.25006 12.6972 6.30622 14.0239 6.41633C15.155 6.51021 16 7.47329 16 8.60828V11.1214M13 6.25006V4.75006M7 6.25006V4.75006M19 14.5001L17.5 15.2501C16.5557 15.7222 15.4443 15.7222 14.5 15.2501C13.5557 14.7779 12.4443 14.7779 11.5 15.2501C10.5557 15.7222 9.44427 15.7222 8.5 15.2501C7.55573 14.7779 6.44427 14.7779 5.5 15.2501C4.55573 15.7222 3.44427 15.7222 2.5 15.2501L1 14.5001M16 11.1214C14.0344 10.8763 12.032 10.7501 10 10.7501C7.96804 10.7501 5.96557 10.8763 4 11.1214M16 11.1214C16.3891 11.1699 16.7768 11.2231 17.163 11.2809C18.2321 11.4409 19 12.3748 19 13.4557V18.6251C19 19.2464 18.4963 19.7501 17.875 19.7501H2.125C1.50368 19.7501 1 19.2464 1 18.6251V13.4557C1 12.3748 1.76793 11.4409 2.83697 11.2809C3.22316 11.2231 3.61086 11.1699 4 11.1214M10.2652 1.10989C10.4117 1.25634 10.4117 1.49378 10.2652 1.64022C10.1188 1.78667 9.88134 1.78667 9.73489 1.64022C9.58845 1.49378 9.58845 1.25634 9.73489 1.10989C9.81044 1.03435 10.0001 0.844727 10.0001 0.844727C10.0001 0.844727 10.1943 1.039 10.2652 1.10989ZM7.26522 1.10989C7.41167 1.25634 7.41167 1.49378 7.26522 1.64022C7.11878 1.78667 6.88134 1.78667 6.73489 1.64022C6.58844 1.49378 6.58844 1.25634 6.73489 1.10989C6.81044 1.03435 7.00005 0.844727 7.00005 0.844727C7.00005 0.844727 7.19432 1.039 7.26522 1.10989ZM13.2652 1.10989C13.4117 1.25634 13.4117 1.49378 13.2652 1.64022C13.1188 1.78667 12.8813 1.78667 12.7349 1.64022C12.5884 1.49378 12.5884 1.25634 12.7349 1.10989C12.8104 1.03435 13.0001 0.844727 13.0001 0.844727C13.0001 0.844727 13.1943 1.039 13.2652 1.10989Z" stroke="#1878F4" stroke-width="1.5" stroke-linecap="round" stroke-linejoin="round"/>
</svg>
