<svg width="18" height="22" viewBox="0 0 18 22" fill="none" xmlns="http://www.w3.org/2000/svg">
<path d="M6 13.25L12 7.25M16.5 3.75699V20.75L12.75 19.25L9 20.75L5.25 19.25L1.5 20.75V3.75699C1.5 2.649 2.30608 1.70014 3.40668 1.57241C5.24156 1.35947 7.108 1.25 9 1.25C10.892 1.25 12.7584 1.35947 14.5933 1.57241C15.6939 1.70014 16.5 2.649 16.5 3.75699ZM6.75 8H6.7575V8.0075H6.75V8ZM7.125 8C7.125 8.20711 6.95711 8.375 6.75 8.375C6.54289 8.375 6.375 8.20711 6.375 8C6.375 7.79289 6.54289 7.625 6.75 7.625C6.95711 7.625 7.125 7.79289 7.125 8ZM11.25 12.5H11.2575V12.5075H11.25V12.5ZM11.625 12.5C11.625 12.7071 11.4571 12.875 11.25 12.875C11.0429 12.875 10.875 12.7071 10.875 12.5C10.875 12.2929 11.0429 12.125 11.25 12.125C11.4571 12.125 11.625 12.2929 11.625 12.5Z" stroke="#02B5FC" stroke-width="1.5" stroke-linecap="round" stroke-linejoin="round"/>
</svg>
