<svg width="22" height="16" viewBox="0 0 22 16" fill="none" xmlns="http://www.w3.org/2000/svg">
<path fill-rule="evenodd" clip-rule="evenodd" d="M0.5 2.375C0.5 1.33947 1.33947 0.5 2.375 0.5H19.625C20.6605 0.5 21.5 1.33947 21.5 2.375V5.40135C21.5 5.66907 21.3573 5.91649 21.1255 6.05055C20.4511 6.44072 20 7.16813 20 8C20 8.83187 20.4511 9.55928 21.1255 9.94945C21.3573 10.0835 21.5 10.3309 21.5 10.5987V13.625C21.5 14.6605 20.6605 15.5 19.625 15.5H2.375C1.33947 15.5 0.5 14.6605 0.5 13.625V10.5987C0.5 10.3309 0.642712 10.0835 0.874456 9.94945C1.54894 9.55928 2 8.83187 2 8C2 7.16813 1.54894 6.44072 0.874456 6.05055C0.642712 5.91649 0.5 5.66907 0.5 5.40135V2.375ZM15.5 1.25C15.9142 1.25 16.25 1.58579 16.25 2V2.75C16.25 3.16421 15.9142 3.5 15.5 3.5C15.0858 3.5 14.75 3.16421 14.75 2.75V2C14.75 1.58579 15.0858 1.25 15.5 1.25ZM16.25 5.75C16.25 5.33579 15.9142 5 15.5 5C15.0858 5 14.75 5.33579 14.75 5.75V6.5C14.75 6.91421 15.0858 7.25 15.5 7.25C15.9142 7.25 16.25 6.91421 16.25 6.5V5.75ZM15.5 8.75C15.9142 8.75 16.25 9.08579 16.25 9.5V10.25C16.25 10.6642 15.9142 11 15.5 11C15.0858 11 14.75 10.6642 14.75 10.25V9.5C14.75 9.08579 15.0858 8.75 15.5 8.75ZM16.25 13.25C16.25 12.8358 15.9142 12.5 15.5 12.5C15.0858 12.5 14.75 12.8358 14.75 13.25V14C14.75 14.4142 15.0858 14.75 15.5 14.75C15.9142 14.75 16.25 14.4142 16.25 14V13.25ZM5 8C5 7.58579 5.33579 7.25 5.75 7.25H11C11.4142 7.25 11.75 7.58579 11.75 8C11.75 8.41421 11.4142 8.75 11 8.75H5.75C5.33579 8.75 5 8.41421 5 8ZM5.75 10.25C5.33579 10.25 5 10.5858 5 11C5 11.4142 5.33579 11.75 5.75 11.75H8.75C9.16421 11.75 9.5 11.4142 9.5 11C9.5 10.5858 9.16421 10.25 8.75 10.25H5.75Z" fill="#1878F4"/>
</svg>
